<svg width="41" height="31" viewBox="0 0 41 31" fill="none" xmlns="http://www.w3.org/2000/svg">
<path d="M30.4043 22.2232L30.4044 22.2234L30.409 22.2185C30.7584 21.8482 31.3154 21.6566 31.8823 21.6566C33.0072 21.6566 33.9148 22.5087 33.9148 23.5342C33.9148 24.5596 33.0072 25.4117 31.8823 25.4117C30.7574 25.4117 29.8498 24.5596 29.8498 23.5342C29.8498 23.0168 30.0524 22.5495 30.4043 22.2232ZM28.5836 23.5342C28.5836 25.2278 30.075 26.6005 31.8823 26.6005C33.6896 26.6005 35.181 25.2278 35.181 23.5342C35.181 21.8405 33.6896 20.4679 31.8823 20.4679C31.0086 20.4679 30.1289 20.7713 29.5203 21.3859C28.9144 21.9486 28.5836 22.7162 28.5836 23.5342Z" fill="white" stroke="white" stroke-width="0.2"/>
<path d="M34.3951 23.5834V23.6834H34.4951H36.4676C36.6481 23.6834 36.8072 23.6273 36.9221 23.5207C37.0378 23.4135 37.1008 23.2624 37.1008 23.089V18.1946C37.1008 18.1077 37.085 18.0308 37.0509 17.9598C37.0172 17.8894 36.9681 17.8302 36.9088 17.7752C36.7855 17.6609 36.6552 17.6002 36.4676 17.6002H13.7568C13.5763 17.6002 13.4172 17.6562 13.3022 17.7628C13.1866 17.87 13.1236 18.0212 13.1236 18.1946V23.089C13.1236 23.1758 13.1394 23.2527 13.1734 23.3238C13.2072 23.3941 13.2563 23.4534 13.3156 23.5084C13.4389 23.6227 13.5692 23.6834 13.7568 23.6834H29.2172H29.3172V23.5834V22.5946V22.4946H29.2172H14.3899V18.789H35.8345V22.4946H34.4951H34.3951V22.5946V23.5834Z" fill="white" stroke="white" stroke-width="0.2"/>
<path d="M5.87266 23.5342C5.87266 25.2278 7.36409 26.6005 9.17137 26.6005C10.0485 26.6005 10.8728 26.295 11.5318 25.6839C12.1387 25.121 12.4701 24.3529 12.4701 23.5342C12.4701 21.8405 10.9787 20.4679 9.17137 20.4679C7.36409 20.4679 5.87266 21.8405 5.87266 23.5342ZM7.1389 23.5342C7.1389 22.5087 8.0465 21.6566 9.17137 21.6566C10.2962 21.6566 11.2039 22.5087 11.2039 23.5342C11.2039 24.0467 11.0047 24.4674 10.647 24.8474C10.2405 25.2232 9.73296 25.4117 9.17137 25.4117C8.0465 25.4117 7.1389 24.5596 7.1389 23.5342Z" fill="white" stroke="white" stroke-width="0.2"/>
<path d="M11.6302 23.5833V23.6833L14.2892 23.1384L14.3892 23.1387L14.3892 23.1385C14.3892 23.1384 14.3892 23.1384 14.3892 23.1384L14.4425 8.10948V8.10913C14.4425 8.02229 14.4267 7.94536 14.3927 7.87434C14.359 7.80399 14.3099 7.74473 14.2506 7.68974C14.1273 7.57541 13.9969 7.51475 13.8094 7.51475H9.11795C8.9304 7.51475 8.80005 7.57541 8.67677 7.68974L4.09194 11.9414C4.03263 11.9964 3.98352 12.0557 3.94981 12.126C3.91577 12.1971 3.9 12.274 3.9 12.3608V23.1384C3.9 23.3118 3.96299 23.4629 4.07861 23.5701C4.19355 23.6767 4.35262 23.7328 4.53312 23.7328H6.50566H6.60566V23.6328V22.644V22.544H6.50566H5.16624V12.6019L9.37078 8.65408H13.1759L13.1233 22.4946H11.7302H11.6302V22.5946V23.5833Z" fill="white" stroke="white" stroke-width="0.2"/>
<path d="M6.43891 12.5832L6.4389 12.5832L6.43764 12.5844C6.37834 12.6394 6.32922 12.6986 6.29551 12.769C6.26147 12.84 6.2457 12.9169 6.2457 13.0038V15.0307C6.2457 15.2042 6.30869 15.3553 6.42431 15.4625C6.53925 15.5691 6.69832 15.6251 6.87882 15.6251H11.4103C11.5908 15.6251 11.7499 15.5691 11.8648 15.4625C11.9805 15.3553 12.0435 15.2042 12.0435 15.0307V10.1858C12.0435 10.0124 11.9805 9.86126 11.8648 9.75404C11.7499 9.64745 11.5908 9.59141 11.4103 9.59141H10.0242C9.83701 9.59141 9.70679 9.65186 9.58369 9.7658L6.43891 12.5832ZM10.7772 10.7802V14.4364H7.51194V13.2463L10.2756 10.7802H10.7772Z" fill="white" stroke="white" stroke-width="0.2"/>
<path d="M13.7568 18.7888H36.4676C36.6481 18.7888 36.8072 18.7328 36.9221 18.6262C37.0378 18.519 37.1008 18.3678 37.1008 18.1944V4.99438C37.1008 4.82097 37.0378 4.66985 36.9221 4.56263C36.8072 4.45604 36.6481 4.4 36.4676 4.4H13.7568C13.5763 4.4 13.4172 4.45604 13.3022 4.56263C13.1866 4.66985 13.1236 4.82097 13.1236 4.99438V18.1944C13.1236 18.2813 13.1394 18.3582 13.1734 18.4292C13.2072 18.4996 13.2563 18.5588 13.3156 18.6138C13.4389 18.7281 13.5692 18.7888 13.7568 18.7888ZM35.8345 5.58877V17.6H14.3903L14.4427 5.58877H35.8345Z" fill="white" stroke="white" stroke-width="0.2"/>
</svg>
