<svg width="49" height="60" viewBox="0 0 49 60" fill="none" xmlns="http://www.w3.org/2000/svg">
<path d="M23.0851 29.5072C22.3683 30.1642 21.2681 30.1642 20.5511 29.5072L17.483 26.6947C16.7197 25.995 16.6681 24.8088 17.3679 24.0455C18.0674 23.2822 19.2536 23.2306 20.0169 23.9302L21.8182 25.5813L28.733 19.2427C29.4963 18.5431 30.6824 18.5947 31.3822 19.358C32.0819 20.1213 32.0302 21.3075 31.2669 22.0072L23.0851 29.5072Z" fill="white"/>
<path fill-rule="evenodd" clip-rule="evenodd" d="M7.5 24.375C7.5 15.0551 15.0551 7.5 24.375 7.5C33.6949 7.5 41.25 15.0551 41.25 24.375C41.25 33.6949 33.6949 41.25 24.375 41.25C15.0551 41.25 7.5 33.6949 7.5 24.375ZM24.375 11.25C17.1262 11.25 11.25 17.1262 11.25 24.375C11.25 31.6237 17.1262 37.5 24.375 37.5C31.6237 37.5 37.5 31.6237 37.5 24.375C37.5 17.1262 31.6237 11.25 24.375 11.25Z" fill="white"/>
<path fill-rule="evenodd" clip-rule="evenodd" d="M24.375 0C10.9131 0 0 10.9131 0 24.375C0 33.0045 4.48444 40.5866 11.25 44.9182V58.125C11.25 58.7749 11.5866 59.3782 12.1393 59.72C12.6921 60.0617 13.3822 60.0926 13.9635 59.802L24.375 54.5962L34.7865 59.802C35.3677 60.0926 36.0579 60.0617 36.6107 59.72C37.1634 59.3782 37.5 58.7749 37.5 58.125V44.9182C44.2656 40.5866 48.75 33.0045 48.75 24.375C48.75 10.9131 37.8369 0 24.375 0ZM3.75 24.375C3.75 12.9842 12.9842 3.75 24.375 3.75C35.7658 3.75 45 12.9842 45 24.375C45 35.7658 35.7658 45 24.375 45C12.9842 45 3.75 35.7658 3.75 24.375ZM33.75 46.8819C30.864 48.0853 27.6971 48.75 24.375 48.75C21.0529 48.75 17.886 48.0853 15 46.8819V55.0912L23.5365 50.823C24.0643 50.559 24.6857 50.559 25.2135 50.823L33.75 55.0912V46.8819Z" fill="white"/>
</svg>
