<svg width="61" height="61" viewBox="0 0 61 61" fill="none" xmlns="http://www.w3.org/2000/svg">
<path d="M42.168 13.1602H36.3346C28.668 13.1602 22.168 19.6603 22.168 27.3268V37.3268H25.5013V31.4935C25.5013 26.1601 28.5012 21.0768 33.418 18.2435C33.8346 17.9934 34.3346 18.1602 34.5847 18.5769C34.8348 18.9935 34.668 19.4935 34.2513 19.7436C29.9181 22.2436 27.168 26.7436 27.168 31.4936H28.0013C34.5015 31.4936 39.668 26.6601 39.668 19.9103C39.668 17.2438 40.4181 14.9935 42.4181 13.9104C42.7512 13.577 42.5014 13.1604 42.168 13.1604L42.168 13.1602Z" fill="white"/>
<path d="M53.8346 23.9935C53.8346 11.1602 43.3346 0.660156 30.5013 0.660156C17.668 0.660156 7.16797 11.1602 7.16797 23.9935C7.16797 31.4102 10.5846 37.9935 16.0013 42.2435L9.7513 53.1602H18.0846L23.0846 60.6602L30.5846 47.3268L38.0846 60.6602L43.0846 53.1602H51.418L45.168 42.1602C50.4181 37.8267 53.8346 31.3268 53.8346 23.9935ZM32.418 43.9102C31.8345 43.9934 31.168 43.9934 30.5012 43.9934C29.9179 43.9934 29.3344 43.9934 28.7512 43.9102C24.5013 43.5768 20.6679 41.9101 17.6679 39.3268C13.2514 35.6601 10.5012 30.1602 10.5012 23.9935C10.5012 12.9935 19.5012 3.99349 30.5012 3.99349C41.5012 3.99349 50.5012 12.9935 50.5012 23.9935C50.5012 30.077 47.7511 35.4935 43.5012 39.1602C40.418 41.827 36.668 43.4936 32.4179 43.9103L32.418 43.9102Z" fill="white"/>
</svg>
