<svg width="59" height="61" viewBox="0 0 59 61" fill="none" xmlns="http://www.w3.org/2000/svg">
<path d="M55.9303 17.6438C55.5769 16.904 55.1911 16.1822 54.7801 15.4766C35.7223 19.4066 12.6331 29.7446 2.46069 45.0614C4.96209 49.592 8.59929 53.4056 12.9877 56.1236C21.8353 38.9954 44.7217 21.7346 55.9303 17.6438Z" fill="white"/>
<path d="M53.0574 12.8384C47.5902 5.3606 38.7564 0.5 28.7838 0.5C15.8952 0.5 4.90557 8.615 0.634766 20.0132C16.0308 12.3644 40.071 10.865 53.0574 12.8384Z" fill="white"/>
<path d="M31.2722 60.5008C46.706 59.2342 58.8386 46.3162 58.8386 30.5559C58.8386 26.4483 58.0124 22.5345 56.522 18.9688C46.049 29.6734 35.5232 45.2782 31.2722 60.5008Z" fill="white"/>
<path d="M7.57757 28.75H6.63257V37.3702H7.57757V28.75Z" fill="white"/>
<path d="M5.42175 22.0708C7.10355 23.6488 7.65135 27.0328 7.55295 28.7374C10.8956 26.0224 7.21395 20.8126 4.29435 20.1484C4.49235 21.4732 4.35855 22.699 4.16055 23.794C3.72855 26.209 4.85595 28.5634 6.68055 28.756C6.72855 27.5332 7.10355 25.804 5.42175 22.0708Z" fill="white"/>
<path d="M1.66558 29.552C2.66518 29.0954 5.19358 29.3114 6.28498 29.6C4.37398 26.7092 0.928777 28.499 0.161377 29.8988C1.07938 30.0416 1.86178 30.386 2.54518 30.7424C4.05178 31.5302 5.84278 31.2734 6.35038 30.1052C5.55118 29.8226 2.81818 29.531 1.66558 29.552Z" fill="white"/>
<path d="M11.2645 28.2401C11.0269 29.3093 9.32831 31.1993 8.44331 31.8935C11.8999 32.1143 12.5503 28.2857 11.8957 26.8301C11.2273 27.4763 10.4803 27.8927 9.78431 28.2221C8.24531 28.9487 7.37171 30.5345 7.99631 31.6415C8.70791 31.1759 10.5889 29.1701 11.2645 28.2401Z" fill="white"/>
<path d="M28.1391 50.6992H27.1941V59.3194H28.1391V50.6992Z" fill="white"/>
<path d="M25.986 44.0201C27.6678 45.5981 28.2156 48.9821 28.1172 50.6855C31.4604 47.9717 27.7782 42.7607 24.8586 42.0977C25.0566 43.4225 24.9222 44.6495 24.7248 45.7427C24.2928 48.1571 25.4202 50.5133 27.2448 50.7053C27.2922 49.4825 27.6672 47.7527 25.986 44.0201Z" fill="white"/>
<path d="M22.2285 51.5021C23.2281 51.0443 25.7565 51.2615 26.8473 51.5495C24.9357 48.6587 21.4911 50.4479 20.7231 51.8477C21.6411 51.9905 22.4241 52.3349 23.1069 52.6913C24.6135 53.4791 26.4045 53.2223 26.9121 52.0559C26.1147 51.7715 23.3817 51.4811 22.2285 51.5021Z" fill="white"/>
<path d="M31.8295 50.1887C31.5919 51.2585 29.8939 53.1485 29.0089 53.8427C32.4655 54.0623 33.1165 50.2337 32.4613 48.7793C31.7929 49.4243 31.0459 49.8413 30.3499 50.1707C28.8127 50.8967 27.9373 52.4831 28.5631 53.5895C29.2717 53.1239 31.1527 51.1175 31.8295 50.1887Z" fill="white"/>
<path d="M19.5234 22.0625H18.8364V28.3235H19.5234V22.0625Z" fill="white"/>
<path d="M17.9565 17.212C19.1775 18.3574 19.5753 20.815 19.5033 22.0522C21.9321 20.0812 19.2567 16.297 17.1381 15.8164C17.2821 16.7782 17.1843 17.6692 17.0397 18.4636C16.7271 20.2162 17.5449 21.9274 18.8697 22.0678C18.9051 21.1786 19.1775 19.9222 17.9565 17.212Z" fill="white"/>
<path d="M15.2292 22.6437C15.954 22.3125 17.7912 22.4691 18.5844 22.6785C17.1948 20.5791 14.6946 21.8787 14.1372 22.8951C14.8038 22.9989 15.3726 23.2485 15.8682 23.5077C16.9632 24.0807 18.2628 23.8935 18.6312 23.0463C18.051 22.8387 16.0668 22.6287 15.2292 22.6437Z" fill="white"/>
<path d="M22.2005 21.6914C22.0271 22.4672 20.7947 23.84 20.1521 24.344C22.6619 24.5036 23.1347 21.7232 22.6601 20.666C22.1735 21.134 21.6323 21.4376 21.1265 21.677C20.0087 22.2038 19.3745 23.357 19.8281 24.1598C20.3435 23.8232 21.7103 22.3658 22.2005 21.6914Z" fill="white"/>
<path d="M35.9278 39.8516H35.2402V46.1144H35.9278V39.8516Z" fill="white"/>
<path d="M34.3626 35.0023C35.5836 36.1477 35.9808 38.6059 35.9106 39.8425C38.3388 37.8715 35.664 34.0867 33.5448 33.6055C33.6894 34.5679 33.5916 35.4595 33.4458 36.2539C33.1338 38.0071 33.9516 39.7177 35.2764 39.8587C35.3118 38.9683 35.5842 37.7125 34.3626 35.0023Z" fill="white"/>
<path d="M31.6343 40.4375C32.3597 40.1045 34.1963 40.2611 34.9901 40.4717C33.6011 38.3717 31.1009 39.6719 30.5435 40.6877C31.2083 40.7921 31.7789 41.0423 32.2751 41.3003C33.3713 41.8721 34.6697 41.6867 35.0387 40.8377C34.4579 40.6319 32.4719 40.4213 31.6343 40.4375Z" fill="white"/>
<path d="M38.6041 39.4818C38.4313 40.257 37.1989 41.631 36.5557 42.1356C39.0655 42.294 39.5377 39.5154 39.0637 38.457C38.5777 38.9256 38.0359 39.2298 37.5307 39.4686C36.4135 39.9954 35.7775 41.148 36.2323 41.9502C36.7471 41.613 38.1127 40.1562 38.6041 39.4818Z" fill="white"/>
<path d="M30.7435 17.7949H30.2527V21.9961H30.7435V17.7949Z" fill="white"/>
<path d="M29.5695 14.5407C30.4983 15.3099 30.7995 16.9575 30.7467 17.7885C32.5935 16.4661 30.5583 13.9269 28.9455 13.6035C29.0559 14.2503 28.9809 14.8467 28.8711 15.3795C28.6341 16.5561 29.2563 17.7033 30.2643 17.7969C30.2889 17.2029 30.4959 16.3593 29.5695 14.5407Z" fill="white"/>
<path d="M27.4944 18.1862C28.0464 17.9636 29.4413 18.0686 30.0455 18.209C28.9895 16.8008 27.0882 17.672 26.6646 18.3542C27.1716 18.4238 27.6036 18.5918 27.981 18.7658C28.8138 19.1498 29.8014 19.0238 30.081 18.455C29.6406 18.317 28.1322 18.1772 27.4944 18.1862Z" fill="white"/>
<path d="M32.796 17.5476C32.6646 18.069 31.7286 18.9894 31.2372 19.3278C33.1452 19.434 33.5052 17.5686 33.144 16.8594C32.7738 17.1738 32.3616 17.3784 31.9776 17.5374C31.128 17.8914 30.6462 18.6642 30.9912 19.2042C31.3824 18.9786 32.4228 18.0006 32.796 17.5476Z" fill="white"/>
<path d="M43.2181 30.2715H42.7285V34.4727H43.2181V30.2715Z" fill="white"/>
<path d="M42.0454 27.0185C42.9742 27.7871 43.2772 29.4353 43.2226 30.2651C45.07 28.9439 43.0348 26.4035 41.4232 26.0801C41.533 26.7269 41.4586 27.3239 41.3494 27.8573C41.1118 29.0333 41.7334 30.1805 42.7414 30.2747C42.7666 29.6795 42.9742 28.8371 42.0454 27.0185Z" fill="white"/>
<path d="M39.9708 30.6626C40.5222 30.4406 41.9184 30.5456 42.5226 30.6854C41.4666 29.2772 39.5646 30.149 39.1404 30.8306C39.6474 30.9002 40.08 31.0682 40.4574 31.2422C41.2884 31.6268 42.2766 31.5008 42.5574 30.932C42.1164 30.7934 40.6086 30.6536 39.9708 30.6626Z" fill="white"/>
<path d="M45.2729 30.0241C45.1397 30.5455 44.2043 31.4653 43.7123 31.8031C45.6221 31.9099 45.9815 30.0445 45.6203 29.3359C45.2495 29.6503 44.8385 29.8531 44.4539 30.0133C43.6055 30.3673 43.1219 31.1401 43.4663 31.6795C43.8593 31.4533 44.8985 30.4759 45.2729 30.0241Z" fill="white"/>
<path d="M39.9138 15.6641H39.5833V18.5003H39.9138V15.6641Z" fill="white"/>
<path d="M39.1212 13.4703C39.7464 13.9893 39.9511 15.1011 39.9145 15.6621C41.1613 14.7687 39.7897 13.0551 38.6995 12.8379C38.7739 13.2741 38.7229 13.6767 38.6497 14.0373C38.4883 14.8311 38.9101 15.6063 39.5899 15.6693C39.6073 15.2667 39.7464 14.6973 39.1212 13.4703Z" fill="white"/>
<path d="M37.7197 15.9302C38.0911 15.7802 39.0331 15.851 39.4423 15.9464C38.7295 14.9954 37.4461 15.5846 37.1599 16.0442C37.5019 16.0916 37.7959 16.205 38.0497 16.322C38.6113 16.5812 39.2779 16.496 39.4651 16.112C39.1687 16.0184 38.1499 15.9248 37.7197 15.9302Z" fill="white"/>
<path d="M41.3016 15.4976C41.2122 15.8498 40.578 16.4708 40.2498 16.6994C41.5374 16.7714 41.7786 15.5126 41.5356 15.0332C41.286 15.2456 41.0088 15.383 40.7484 15.4916C40.1754 15.7298 39.8508 16.2512 40.0836 16.616C40.3452 16.463 41.0496 15.8042 41.3016 15.4976Z" fill="white"/>
</svg>
