<svg width="61" height="60" viewBox="0 0 61 60" fill="none" xmlns="http://www.w3.org/2000/svg">
<path d="M30.9102 0C14.3628 0 0.910156 13.4526 0.910156 30C0.910156 46.5474 14.3628 60 30.9102 60C47.4575 60 60.9102 46.5474 60.9102 30C60.9102 13.4526 47.4575 0 30.9102 0ZM51.1207 48.2526L38.9944 36.1263V40.1053L49.0996 50.2105C44.2996 54.5684 37.9207 57.2211 30.9102 57.2211C15.8786 57.2211 3.6891 45.0316 3.6891 30C3.6891 22.9895 6.34173 16.6105 10.6996 11.7474L19.2891 20.3368C19.4786 20.2105 19.7312 20.1474 19.9207 20.0842V17.0526L12.6575 9.78947C17.5207 5.43158 23.8996 2.77895 30.9102 2.77895C45.9417 2.77895 58.1312 14.9684 58.1312 30C58.1312 37.0105 55.4786 43.3895 51.1207 48.2526Z" fill="white"/>
<path d="M31.2887 18.3794H33.1203C33.4361 18.3794 33.6255 18.1267 33.6255 17.8741V16.8636C33.6255 16.5478 33.3729 16.3583 33.1203 16.3583H31.2887C31.2887 15.1583 30.3413 14.2109 29.1413 14.2109H24.8466C23.6466 14.2109 22.6992 15.1583 22.6992 16.3583V20.5267H31.2255V18.3794H31.2887Z" fill="white"/>
<path d="M37.2254 15.9785C36.4675 15.9785 35.8359 16.6101 35.8359 17.368C35.8359 18.1259 36.4675 18.7575 37.2254 18.7575C37.9833 18.7575 38.6149 18.1259 38.6149 17.368C38.6149 16.6101 37.9833 15.9785 37.2254 15.9785Z" fill="white"/>
<path d="M40.8895 18.3789C40.1316 18.3789 39.5 19.0105 39.5 19.7684C39.5 20.5263 40.1316 21.1579 40.8895 21.1579C41.6474 21.1579 42.2789 20.5263 42.2789 19.7684C42.2789 19.0105 41.6474 18.3789 40.8895 18.3789Z" fill="white"/>
<path d="M40.8895 13.5781C40.1316 13.5781 39.5 14.2097 39.5 14.9676C39.5 15.7255 40.1316 16.3571 40.8895 16.3571C41.6474 16.3571 42.2789 15.7255 42.2789 14.9676C42.2789 14.2097 41.6474 13.5781 40.8895 13.5781Z" fill="white"/>
<path d="M44.5496 20.7793C43.7917 20.7793 43.1602 21.4109 43.1602 22.1688C43.1602 22.9267 43.7917 23.5582 44.5496 23.5582C45.3075 23.5582 45.9391 22.9267 45.9391 22.1688C45.9391 21.4109 45.3075 20.7793 44.5496 20.7793Z" fill="white"/>
<path d="M44.5496 15.9785C43.7917 15.9785 43.1602 16.6101 43.1602 17.368C43.1602 18.1259 43.7917 18.7575 44.5496 18.7575C45.3075 18.7575 45.9391 18.1259 45.9391 17.368C45.9391 16.6101 45.3075 15.9785 44.5496 15.9785Z" fill="white"/>
<path d="M44.5496 11.1797C43.7917 11.1797 43.1602 11.8113 43.1602 12.5692C43.1602 13.3271 43.7917 13.9586 44.5496 13.9586C45.3075 13.9586 45.9391 13.3271 45.9391 12.5692C45.9391 11.8113 45.3075 11.1797 44.5496 11.1797Z" fill="white"/>
<path d="M31.5419 22.4219H22.5103C19.9208 22.4219 17.7734 24.5692 17.7734 27.1587V45.9166C17.7734 47.4956 19.0366 48.7587 20.6155 48.7587H33.3734C34.9524 48.7587 36.2787 47.4956 36.2787 45.9166V27.1587C36.2787 24.5692 34.1313 22.4219 31.5419 22.4219ZM25.2261 28.864C25.4787 28.8008 25.7945 28.9271 25.8576 29.1798L26.3629 30.8219C26.5524 30.7587 26.7419 30.7587 26.9313 30.7587C27.1208 30.7587 27.3103 30.8219 27.4998 30.8219L28.005 29.1798C28.0682 28.9271 28.384 28.7377 28.6366 28.864C28.8892 28.9271 29.0787 29.2429 28.9524 29.4956L28.3208 31.4535C28.6366 31.8324 28.8261 32.4008 28.7629 32.9692V33.1587H24.9734V32.9692C24.9103 32.4008 25.0998 31.8956 25.4155 31.4535L24.784 29.4956C24.8471 29.2429 24.9734 28.9271 25.2261 28.864ZM33.184 38.4008C33.1208 38.464 32.9945 38.464 32.8682 38.464C32.6787 38.464 32.5524 38.4008 32.4261 38.2113L32.2366 37.8956C31.9208 37.4535 31.4787 37.2008 30.9103 37.1377L29.7103 37.0745C29.7103 37.5798 29.7103 38.0219 29.584 38.5271C30.0892 38.7166 30.4682 39.0324 30.784 39.4113C31.2261 40.0429 31.4155 40.8008 31.2261 41.5587L31.2892 42.0008C31.2261 42.2535 31.0366 42.3798 30.784 42.3798C30.7208 42.3798 30.7208 42.3798 30.6576 42.3798C30.405 42.3166 30.2155 42.064 30.2787 41.7482L30.3419 41.4324C30.4682 40.9903 30.3419 40.485 30.0892 40.1061C29.8998 39.8535 29.6471 39.664 29.3945 39.6008L29.2682 39.9166C29.0155 40.6113 28.1945 41.0535 27.3103 41.0535H26.7419C25.8576 41.0535 25.0998 40.6113 24.784 39.9166L24.6576 39.6008C24.405 39.7271 24.1524 39.9166 23.9629 40.1061C23.7103 40.485 23.584 40.9903 23.7103 41.4324L23.7734 41.7482C23.8366 42.0008 23.6471 42.3166 23.3945 42.3798C23.3313 42.3798 23.3313 42.3798 23.2682 42.3798C23.0155 42.3798 22.8261 42.1903 22.7629 42.0008L22.6998 41.685C22.5103 40.9271 22.6998 40.1692 23.1419 39.5377C23.4576 39.0956 23.8998 38.7798 24.3419 38.5903C24.2155 38.1482 24.2155 37.6429 24.2155 37.1377L23.0155 37.2008C22.5103 37.2008 22.005 37.5166 21.6892 37.9587L21.5629 38.2113C21.4366 38.3377 21.3103 38.464 21.1208 38.464C20.9945 38.464 20.9313 38.464 20.805 38.4008C20.5524 38.2113 20.4892 37.8956 20.6787 37.7061L20.8682 37.3903C21.3103 36.6956 22.1313 36.2535 23.0155 36.1903L24.405 36.1271C24.4682 35.9377 24.4682 35.8113 24.5313 35.6219L24.5945 35.3692C24.5945 35.3061 24.6576 35.2429 24.7208 35.1798H24.0892C23.5208 35.1798 22.9524 34.9271 22.5103 34.485C22.1313 34.0429 21.9419 33.4745 22.005 32.8429L22.0682 32.1482C22.1313 31.8324 22.384 31.6429 22.6366 31.7061C22.9524 31.7692 23.1419 32.0219 23.0787 32.2745L23.0155 32.9692C22.9524 33.285 23.0787 33.5377 23.2682 33.7903C23.4576 34.0429 23.7103 34.1692 24.0261 34.1692H29.8998C30.2155 34.1692 30.4682 34.0429 30.6576 33.7903C30.8471 33.5377 30.9734 33.285 30.9103 32.9692V32.2745C30.8471 31.9587 31.0998 31.7061 31.3524 31.7061C31.605 31.6429 31.9208 31.8956 31.9208 32.1482L31.984 32.8429C32.0471 33.4113 31.8576 34.0429 31.4787 34.485C31.0998 34.9271 30.5313 35.1798 29.8998 35.1798H29.2682C29.3313 35.2429 29.3313 35.3061 29.3945 35.3692L29.4576 35.6219C29.5208 35.8113 29.584 35.9377 29.584 36.1271L30.9734 36.1903C31.8576 36.2535 32.6155 36.6956 33.1208 37.3903L33.3103 37.7061C33.4998 37.8956 33.4366 38.2113 33.184 38.4008Z" fill="white"/>
</svg>
