<svg width="51" height="60" viewBox="0 0 51 60" fill="none" xmlns="http://www.w3.org/2000/svg">
<path d="M19.1061 29.7108C20.8755 32.1754 22.4553 35.1454 23.5928 38.2419L29.1539 38.6843C30.8601 32.9337 33.135 28.8261 35.5996 25.6032C39.2648 26.9935 43.9411 26.9303 46.6585 24.5921C51.3348 20.5478 50.8924 8.28821 49.6917 1.21054C49.5022 -0.0533302 47.8591 -0.432491 47.1008 0.578605C40.5919 8.92015 29.1539 10.0576 29.3434 18.0832C29.4066 19.7894 29.7226 20.8637 30.9233 22.1276C35.726 15.9978 41.7294 13.9756 42.0453 13.8492C42.1085 13.8492 42.1717 13.786 42.1717 13.786C41.4134 14.2916 38.6961 16.6298 35.7892 20.1686C32.2503 23.897 28.9011 28.6365 26.4365 36.1565C25.3622 33.5024 24.0352 30.9747 22.5185 28.7629C19.4853 23.4547 15.5041 19.8526 14.6825 19.1575C14.7457 19.1575 14.7457 19.1575 14.8089 19.2207C15.0617 19.3471 20.1172 21.2429 24.0984 26.6143C25.1727 25.54 25.4886 24.6553 25.5518 23.2019C25.931 16.3138 16.136 15.0499 10.8277 7.71947C10.1958 6.83476 8.80555 7.15073 8.55278 8.22502C7.3521 14.2284 6.59378 24.7185 10.5118 28.3206C12.5972 30.2164 16.0728 30.4691 19.1061 29.7108Z" fill="white"/>
<path d="M43.4976 45.0659C42.1706 45.5082 39.9588 46.077 37.5574 46.5825C36.6727 47.9728 35.0929 49.1102 32.6915 49.4894C32.1228 49.6158 31.4909 49.6158 30.7957 49.6158C29.0895 49.6158 27.1305 49.4262 24.9187 49.1734C24.7923 49.1734 24.6028 49.1734 24.4764 49.1102C23.9708 49.0471 23.4653 48.6679 23.4653 48.0991C23.4021 47.404 23.9708 46.8985 24.666 46.9617C24.8555 46.9617 24.9819 47.0249 25.1715 47.0249C28.0152 47.3408 30.6693 47.5936 32.3756 47.3408C35.5352 46.8353 36.4199 44.9395 36.2936 43.2964C36.1672 41.9694 35.2193 40.7055 33.6394 40.7687C31.4277 40.8951 28.8367 40.6423 26.309 40.4527C23.4021 40.2 20.432 40.0736 18.3466 40.2632C16.0084 40.5159 11.2057 42.159 6.97177 44.9395C4.88639 46.3297 2.54823 47.9096 1.15797 48.9207C0.462843 49.4262 0.273263 50.4373 0.842004 51.1324L6.78219 59.158C7.28774 59.8531 8.23564 59.9795 8.93077 59.474L11.2057 57.7678C11.7745 57.3886 12.4696 57.2622 13.1015 57.4518C17.2091 58.842 21.5695 59.7899 24.4132 59.9795C30.6693 60.4219 42.8025 53.2178 46.3413 50.8797C49.7538 48.5415 47.3524 43.6756 43.4976 45.0659Z" fill="white"/>
</svg>
