<svg width="61" height="61" viewBox="0 0 61 61" fill="none" xmlns="http://www.w3.org/2000/svg">
<path d="M52.8378 10.4338C52.6025 10.1369 52.3475 9.85637 52.0744 9.59398C51.6926 9.13591 51.2346 8.7542 50.7765 8.29613C50.4711 7.99076 50.1658 7.76173 49.9367 7.5327C44.0852 2.46387 36.4993 -0.144216 28.7679 0.254695C21.0365 0.653605 13.7594 4.02857 8.4606 9.67271C3.16181 15.3169 0.252442 22.7924 0.341845 30.5335C0.431247 38.2747 3.51248 45.681 8.94021 51.2013L9.0929 51.3539L9.24558 51.5066C13.4457 55.6806 18.7885 58.5162 24.5992 59.6553C30.41 60.7944 36.428 60.1859 41.8931 57.9068C47.3582 55.6276 52.0253 51.7799 55.3049 46.8498C58.5845 41.9196 60.3295 36.1281 60.3195 30.2068C60.2688 22.9334 57.6146 15.9188 52.8378 10.4338ZM43.1422 51.9647C42.9131 52.1174 42.6077 52.2701 42.3787 52.4228C37.9154 54.8343 32.8322 55.8541 27.7841 55.3507C22.736 54.8472 17.9543 52.8436 14.0552 49.598L22.5294 41.1239L19.2466 37.8411L11.2305 45.8572L10.7725 46.3153C6.73311 41.4617 4.65345 35.2738 4.94161 28.9658C5.22977 22.6579 7.86495 16.6854 12.33 12.2203C16.795 7.75528 22.7676 5.12011 29.0755 4.83195C35.3835 4.54378 41.5714 6.62344 46.4249 10.6628L39.1799 17.9078L42.4627 21.1906L49.7077 13.9456C52.0591 16.7634 53.7698 20.0587 54.7211 23.6033C55.6724 27.1479 55.8417 30.857 55.2171 34.4735C54.5926 38.09 53.1892 41.5274 51.1042 44.5477C49.0192 47.5679 46.3024 50.0987 43.1422 51.9647Z" fill="white"/>
<path d="M49.9854 28.0702C49.8121 27.5033 49.5175 26.9808 49.122 26.5391C48.7265 26.0975 48.2396 25.7472 47.6951 25.5127L47.6111 25.4745L28.9451 17.9013C28.7679 17.8168 28.597 17.7198 28.4336 17.6111L27.464 16.6416C27.3537 16.5316 27.2336 16.432 27.1052 16.3438C27.213 15.7678 27.179 15.1742 27.0061 14.6142C26.8332 14.0542 26.5266 13.5448 26.1127 13.1298L25.8455 12.8626C25.1658 12.2017 24.2551 11.832 23.3071 11.832C22.3591 11.832 21.4484 12.2017 20.7687 12.8626L14.2337 19.39C13.5728 20.0697 13.2031 20.9804 13.2031 21.9284C13.2031 22.8764 13.5728 23.7871 14.2337 24.4668L14.5085 24.7416C14.9204 25.1625 15.4306 25.4742 15.993 25.6488C16.5554 25.8234 17.1524 25.8553 17.7302 25.7417C17.8136 25.8647 17.9081 25.9797 18.0127 26.0853L18.9899 27.0625C19.0796 27.1408 19.1479 27.2406 19.1884 27.3526L19.2342 27.4824L26.7922 46.24L26.838 46.3316C27.0782 46.8898 27.4423 47.3861 27.9025 47.7828C28.3628 48.1796 28.9073 48.4666 29.4948 48.6219H29.5711C30.1729 48.7636 30.7997 48.7599 31.3998 48.6112C31.9998 48.4626 32.5558 48.1731 33.0218 47.7669L49.1074 31.7347C49.5649 31.2562 49.8873 30.6649 50.0415 30.0211C50.1958 29.3773 50.1764 28.7041 49.9854 28.0702ZM17.8524 23.23C17.6045 23.4347 17.2877 23.5369 16.9669 23.5156C16.6462 23.4943 16.3457 23.3512 16.127 23.1155L15.8598 22.8483C15.6245 22.6013 15.4933 22.2733 15.4933 21.9322C15.4933 21.5911 15.6245 21.2631 15.8598 21.0161L22.3872 14.4811C22.6354 14.2453 22.9647 14.1139 23.3071 14.1139C23.6495 14.1139 23.9788 14.2453 24.227 14.4811L24.4942 14.7483C24.7144 14.9745 24.8463 15.2722 24.8659 15.5873C24.8855 15.9024 24.7916 16.2142 24.6011 16.466L17.8524 23.23ZM47.4889 30.101L31.4033 46.1713C31.1954 46.3214 30.9567 46.4233 30.7044 46.4695C30.4522 46.5157 30.1928 46.5051 29.9452 46.4385C29.7139 46.3467 29.5039 46.2086 29.328 46.0327C29.152 45.8568 29.0139 45.6467 28.9222 45.4155L21.3642 26.6273C21.2064 26.1761 20.9449 25.7681 20.6007 25.4364L19.6312 24.4668L25.8379 18.2601L26.8075 19.2296C27.1587 19.5493 27.5613 19.8074 27.9984 19.9931L46.7255 27.6274C46.9573 27.7219 47.1679 27.8617 47.3449 28.0387C47.5219 28.2157 47.6617 28.4263 47.7561 28.6581C47.838 28.8989 47.8564 29.1568 47.8096 29.4069C47.7628 29.6569 47.6523 29.8907 47.4889 30.0857V30.101Z" fill="white"/>
<path d="M44.7371 29.0535L35.8278 25.4348C35.6908 25.3881 35.5446 25.3752 35.4015 25.397C35.2585 25.4189 35.1228 25.4749 35.006 25.5602C34.8892 25.6456 34.7946 25.7579 34.7303 25.8875C34.6661 26.0172 34.634 26.1604 34.6368 26.3051C34.7082 26.8907 34.6486 27.4848 34.4625 28.0446C34.2763 28.6043 33.9682 29.1158 33.5604 29.5421C32.0335 31.0689 29.2393 30.9468 26.3764 29.4886C26.2222 29.3997 26.0438 29.3621 25.8668 29.3812C25.6899 29.4003 25.5235 29.4751 25.3919 29.5949C25.2602 29.7147 25.17 29.8732 25.1343 30.0476C25.0986 30.2219 25.1192 30.4032 25.1931 30.5651L30.4303 43.3603C30.4645 43.4727 30.5275 43.5741 30.6132 43.6546C30.6988 43.735 30.8041 43.7915 30.9184 43.8186C31.0328 43.8456 31.1522 43.8422 31.2648 43.8087C31.3774 43.7751 31.4793 43.7126 31.5602 43.6275L45.0043 30.2062C45.0848 30.1211 45.143 30.0174 45.1736 29.9043C45.2043 29.7912 45.2065 29.6723 45.18 29.5581C45.1536 29.444 45.0993 29.3382 45.022 29.2501C44.9447 29.1621 44.8468 29.0945 44.7371 29.0535Z" fill="white"/>
<path d="M10.3008 32.1769C10.3008 32.4777 10.36 32.7755 10.4751 33.0534C10.5902 33.3312 10.7589 33.5837 10.9716 33.7964C11.1843 34.0091 11.4368 34.1778 11.7146 34.2929C11.9925 34.408 12.2903 34.4672 12.5911 34.4672C12.8919 34.4672 13.1897 34.408 13.4676 34.2929C13.7454 34.1778 13.9979 34.0091 14.2106 33.7964C14.4233 33.5837 14.592 33.3312 14.7071 33.0534C14.8222 32.7755 14.8814 32.4777 14.8814 32.1769C14.8814 30.9249 12.5911 25.8633 12.5911 25.8633C12.5911 25.8633 10.3008 30.9249 10.3008 32.1769Z" fill="white"/>
</svg>
