<svg width="60" height="60" viewBox="0 0 60 60" fill="none" xmlns="http://www.w3.org/2000/svg">
<path d="M55.3833 26.8132C54.8155 26.4347 54.1215 26.4347 53.5537 26.8132C50.8407 28.6429 47.7493 29.3369 44.9732 29.9678C40.9985 30.9142 37.5284 31.6713 36.4559 35.3306C36.2035 36.0877 36.1404 36.9078 36.3297 37.7911C36.3928 38.1697 36.7713 38.359 37.0868 38.1697C39.1688 37.0971 42.2603 35.9615 46.0458 35.9615C44.2161 36.7817 41.6925 38.1066 39.1057 40.1255C38.0332 41.0719 30.0206 49.1476 30.0206 49.1476C30.0206 49.1476 22.0079 41.0719 20.8723 40.1255C18.3486 38.1066 15.7619 36.7186 13.9322 35.9615C17.7177 35.9615 20.8723 37.0971 22.8912 38.1697C23.2067 38.359 23.6483 38.1066 23.6483 37.7911C23.7745 36.9709 23.7114 36.1507 23.5221 35.3306C22.3865 31.6713 18.9795 30.9142 15.0048 29.9678C12.2918 29.3369 9.13727 28.5798 6.42434 26.8132C5.85652 26.4347 5.16251 26.4347 4.59469 26.8132C4.02686 27.1918 3.7745 27.8227 3.83759 28.4536C4.65778 33.6271 7.24453 42.9015 11.9133 44.8574C14.3108 45.8037 17.0237 45.4252 19.4212 43.7217C21.1247 45.1097 24.4685 49.0214 26.9291 52.2391C27.6231 53.1224 28.0016 54.258 28.0016 55.3937V58.0435C28.0016 59.1161 28.8849 59.9993 29.9575 59.9993C31.03 59.9993 31.9133 59.1161 31.9133 58.0435V55.3937C31.9133 54.258 32.2918 53.1224 32.9859 52.2391C35.5095 49.0214 38.8534 45.1097 40.5568 43.7217C42.9543 45.3621 45.6672 45.8037 48.0647 44.8574C52.7335 42.9646 55.3833 33.6902 56.1404 28.4536C56.2666 27.8227 55.9511 27.1918 55.3833 26.8132Z" fill="white"/>
<path d="M15.5084 20C15.95 21.4511 18.4737 21.8297 19.357 23.0284C20.2402 24.2271 19.8617 26.7508 21.0604 27.6341C22.2592 28.5174 24.5305 27.3817 25.9816 27.8233C27.3696 28.265 28.5052 30.5363 30.0825 30.5363C31.5967 30.5363 32.7954 28.265 34.1835 27.8233C35.6346 27.3817 37.9059 28.4543 39.1046 27.6341C40.3033 26.7508 39.9248 24.2271 40.8081 23.0284C41.6913 21.8297 44.1519 21.4511 44.6566 20C45.0983 18.612 43.3317 16.8454 43.3317 15.2681C43.3317 13.6909 45.0983 11.9243 44.6566 10.5363C44.215 9.08517 41.6913 8.70662 40.8081 7.50789C39.9248 6.30915 40.3033 3.78549 39.1046 2.90221C37.9059 2.01893 35.6346 3.15457 34.1835 2.71293C32.7954 2.27129 31.6598 0 30.0825 0C28.5683 0 27.3696 2.27129 25.9816 2.71293C24.5305 3.15457 22.2592 2.08202 21.0604 2.90221C19.8617 3.78549 20.2402 6.30915 19.357 7.50789C18.4737 8.70662 16.0131 9.08517 15.5084 10.5363C15.0667 11.9243 16.8333 13.6909 16.8333 15.2681C16.8333 16.8454 15.0667 18.612 15.5084 20ZM23.3317 14.5741C24.1519 13.7539 25.4137 13.7539 26.2339 14.5741L28.1898 16.53L33.6156 11.1041C34.4358 10.2839 35.6977 10.2839 36.5178 11.1041C37.338 11.9243 37.338 13.1861 36.5178 14.0063L29.6409 20.8833C29.2623 21.2618 28.6945 21.5142 28.1898 21.5142C27.685 21.5142 27.1172 21.3249 26.7387 20.8833L23.3317 17.4763C22.5115 16.6562 22.5115 15.3943 23.3317 14.5741Z" fill="white"/>
</svg>
