<svg width="41" height="41" viewBox="0 0 41 41" fill="none" xmlns="http://www.w3.org/2000/svg">
<path fill-rule="evenodd" clip-rule="evenodd" d="M22.5473 32.0409L33.1964 29.9389C34.8529 29.5707 35.9 29.8028 36.0952 30.7325L24.1585 33.1084L22.5474 32.0412L22.5473 32.0409ZM10.1262 0C12.1736 0 14.0267 0.829391 15.3686 2.17152C16.7107 3.51277 17.5401 5.36675 17.5401 7.41338C17.5401 9.46081 16.7107 11.3139 15.3686 12.6558C14.0265 13.997 12.1733 14.8273 10.1262 14.8273C8.07958 14.8273 6.22567 13.997 4.88435 12.6558C3.54222 11.3136 2.71283 9.46052 2.71283 7.41338C2.71283 5.36675 3.54222 3.51284 4.88435 2.17152C6.22559 0.829391 8.07958 0 10.1262 0ZM9.2494 3.03003C9.1208 3.03003 9.01619 3.1352 9.01619 3.26381V6.30328H5.97673C5.84812 6.30328 5.74294 6.40788 5.74294 6.53649V8.29016C5.74294 8.41877 5.84812 8.52395 5.97673 8.52395H9.01619V11.5634C9.01619 11.692 9.1208 11.7972 9.2494 11.7972H11.0031C11.1317 11.7972 11.2369 11.692 11.2369 11.5634V8.52395H14.2763C14.4049 8.52395 14.5101 8.41877 14.5101 8.29016V6.53649C14.5101 6.40788 14.4049 6.30328 14.2763 6.30328H11.2369V3.26381C11.2369 3.1352 11.1317 3.03003 11.0031 3.03003H9.2494ZM27.2486 24.1094C26.7627 25.0008 25.6052 24.4801 26.1373 23.4198L27.9261 20.2334L25.4034 16.1159C25.3014 15.9339 25.3657 15.7024 25.5489 15.5998C25.731 15.4969 25.9625 15.5626 26.0651 15.7447L28.26 19.6567L30.4723 15.552L28.2417 11.5746C28.1397 11.3925 28.2045 11.1611 28.3866 11.059C28.5695 10.9561 28.8007 11.0213 28.9036 11.2039L30.8836 14.7332L32.3932 11.7252L30.9485 9.14961C30.8456 8.96756 30.9113 8.73549 31.0928 8.6326C31.2763 8.52972 31.5075 8.59488 31.6104 8.7775L32.8041 10.9067L35.0776 6.37654C35.1717 6.18935 35.4003 6.11361 35.5875 6.20764C35.7753 6.30224 35.851 6.53031 35.757 6.7175L33.4835 11.2471L35.9045 10.9324C36.1126 10.9053 36.3023 11.0522 36.3295 11.2603C36.3566 11.4677 36.2092 11.6587 36.0022 11.6858L33.0731 12.0665L31.5641 15.0745L35.5775 14.5526C35.7856 14.5255 35.9753 14.6724 36.0025 14.8804C36.0291 15.0885 35.8828 15.2783 35.6747 15.3046L31.1533 15.8933L29.0733 20.1349L33.6326 19.5424C33.8407 19.5158 34.031 19.6627 34.0576 19.8697C34.0847 20.0777 33.9378 20.2681 33.7298 20.2946L28.7506 20.7951L27.2486 24.1094ZM25.0979 25.1715C24.0868 22.8065 23.2057 20.9065 23.0639 18.0783C22.9341 15.5152 23.4514 12.8636 24.6972 10.3814C25.9427 7.90095 27.7601 5.89975 29.8918 4.47246C32.101 2.99235 34.6472 2.13208 37.2441 1.99088L37.6777 1.96687L37.9178 2.32869C39.3573 4.49589 40.1881 7.05123 40.3224 9.70658C40.4522 12.269 39.9335 14.9221 38.6885 17.402C37.4431 19.8842 35.6271 21.8845 33.4945 23.312C31.1129 24.9068 29.1489 25.3649 26.6533 25.7962L25.7525 27.9097C25.2369 29.1206 23.8979 28.5496 23.8493 27.6607L23.8431 27.6556L22.8282 26.8859C21.4132 27.2854 20.2709 27.6461 18.6567 27.5186C17.1937 27.4046 15.7281 26.9168 14.412 26.0279C13.0965 25.1396 12.0947 23.963 11.4425 22.6486C10.7655 21.2876 10.4636 19.7806 10.5746 18.2973L10.5929 18.0501L10.8161 17.9403C12.1498 17.283 13.66 16.9992 15.1762 17.1178C16.6386 17.2319 18.1048 17.7211 19.4203 18.6086C20.7364 19.4974 21.7376 20.6735 22.3904 21.9879C23.1203 23.4552 23.2358 24.6026 23.2969 26.0491L24.2678 26.6195L25.0981 25.1702L25.0979 25.1715ZM22.3842 25.5893C22.8538 25.9297 22.4737 26.5481 21.9115 26.1686L20.2362 24.9205L17.7161 26.0488C17.6052 26.0937 17.4791 26.04 17.4343 25.9285C17.3894 25.8176 17.4431 25.6916 17.554 25.6467L19.9335 24.6887L17.7683 23.1331L15.3491 24.1062C15.2382 24.1511 15.1121 24.0974 15.0673 23.9865C15.0224 23.8756 15.0761 23.749 15.187 23.7041L17.3339 22.8399L15.7392 21.7633L14.1721 22.3938C14.0613 22.4386 13.9346 22.3843 13.8898 22.274C13.8449 22.1626 13.8986 22.0365 14.0101 21.9911L15.3047 21.4704L12.9032 19.849C12.8037 19.7816 12.7771 19.6467 12.8446 19.5472C12.912 19.4478 13.0469 19.4212 13.1458 19.4886L15.548 21.11L15.5468 19.7144C15.5468 19.5947 15.6446 19.4975 15.7643 19.4975C15.8841 19.4975 15.9812 19.5947 15.9812 19.7144L15.9824 21.4032L17.5771 22.4798L17.576 20.1651C17.576 20.0454 17.6732 19.9482 17.7935 19.9491C17.9127 19.9491 18.0096 20.0454 18.0096 20.1651L18.0116 22.7728L20.2645 24.2629L20.2634 21.6344C20.2634 21.5147 20.3605 21.4175 20.4803 21.4175C20.6 21.4175 20.6972 21.5147 20.6963 21.6344L20.6149 24.495L22.3843 25.5899L22.3842 25.5893ZM6.01591 26.9017C8.47437 25.3075 11.1815 25.4104 13.4223 26.4536C14.8859 27.1349 15.9942 28.5016 17.3581 29.3241L20.7285 31.2158C22.4935 32.1915 21.599 34.6794 19.9697 34.3139L16.4638 33.858C16.0339 33.8026 15.6738 33.6665 15.3223 33.413L11.4374 30.6079C11.0681 30.311 10.6212 30.8997 11.0521 31.1872L14.9862 34.1518C15.336 34.4153 15.9367 34.6403 16.3712 34.7003L19.8682 35.1824C21.1189 35.357 22.1757 34.764 22.5093 33.3127L23.7219 34.0312L37.5076 31.1712C40.4916 30.6222 41.5916 34.2581 38.4681 35.0138L23.7606 39.6929C21.4877 40.4159 19.2996 40.6397 17.0621 39.8152L9.81507 37.1459C9.17145 36.9089 8.50894 36.9435 7.9234 37.3022L4.33747 39.4977C3.95993 39.7284 3.52549 39.6989 3.26517 39.1693L0.163958 31.9552C-0.17843 31.0652 0.0462068 30.6736 0.552929 30.2526C2.07277 28.9914 5.39151 27.3072 6.01538 26.9016L6.01591 26.9017Z" fill="#006944"/>
</svg>
