<svg width="40" height="41" viewBox="0 0 40 41" fill="none" xmlns="http://www.w3.org/2000/svg">
<path d="M20.1192 0C17.6335 0 15.6104 2.02226 15.6104 4.50851C15.6104 6.99483 17.6329 9.01797 20.1192 9.01797C22.6057 9.01797 24.628 6.99483 24.628 4.50851C24.628 2.02218 22.6057 0 20.1192 0Z" fill="#006944"/>
<path d="M26.7201 24.3221C27.0962 25.8925 30.8233 26.6502 34.1123 27.3193C35.4322 27.5882 36.5726 27.82 37.2612 28.0657C37.5371 28.1642 37.8069 28.2143 38.0649 28.2143C39.1115 28.2143 39.7369 27.4059 39.7932 26.6457C39.8398 26.0088 39.4936 25.2054 38.3651 25.0378C36.1702 24.7129 32.6232 23.333 30.8118 22.2982C29.1586 21.3529 28.7377 17.1984 28.6479 15.9472C28.6332 15.7362 28.6323 15.5195 28.6314 15.2915C28.6264 14.2827 28.6207 13.1392 27.334 12.0678C26.6673 11.5118 25.9431 11.3152 25.2426 11.1251C24.312 10.8718 23.3496 10.611 22.4205 9.49585C22.377 9.44332 22.3054 9.42268 22.2416 9.44332C21.5665 9.6597 20.8689 9.77009 20.1668 9.77009C19.1114 9.77009 18.3635 9.51805 18.2052 9.45989C18.1952 9.45363 18.1856 9.44832 18.1749 9.443C18.1074 9.41517 18.0292 9.43456 17.9829 9.49084C17.0542 10.6053 16.0917 10.8668 15.1608 11.1194C14.4606 11.3095 13.7364 11.5068 13.0694 12.0622C11.783 13.1335 11.777 14.277 11.772 15.2861C11.7711 15.5147 11.7702 15.7308 11.7545 15.9418C11.676 17.0353 10.8274 21.4244 9.15101 22.3825C7.33952 23.4173 3.79251 24.7969 1.5983 25.1222C0.420659 25.2966 -0.0537262 26.2191 0.00479151 27.0027C0.0551368 27.6913 0.545452 28.4318 1.5008 28.4318C1.74095 28.4318 1.9983 28.384 2.26504 28.2883C2.9461 28.0453 4.11439 27.802 5.4671 27.5209C8.76331 26.8355 12.8653 25.9818 13.2437 24.4061C13.6455 22.7353 14.7147 20.2447 15.1065 19.36C15.4965 20.2247 16.4311 22.7291 15.4474 25.0897L15.2413 25.5872C14.4702 27.45 14.2851 27.8439 13.6547 27.8439C13.3876 27.8439 13.0405 27.7739 12.543 27.6663C11.8988 27.5268 10.6077 27.4377 9.25215 27.4377C7.42722 27.4377 3.02222 27.6059 1.53966 29.1685C1.19006 29.5375 1.02464 29.9618 1.04966 30.4306C1.23196 33.8959 3.93216 34.6042 4.64574 34.6042C4.97063 34.6042 5.58322 35.0273 6.17488 35.4364C6.88909 35.9308 7.56362 36.397 8.05513 36.397C8.14894 36.397 8.23431 36.3801 8.3103 36.3463C8.41161 36.301 8.52981 36.2678 8.66397 36.2472C8.17115 36.3942 7.69206 36.6525 7.42036 37.103C7.05731 37.7056 7.14331 38.5233 7.67584 39.5333C7.96227 40.0771 8.39412 40.3523 8.95851 40.3523C9.70774 40.3523 10.5392 39.8763 11.2734 39.4561C11.7394 39.1897 12.1793 38.9382 12.4048 38.9382C12.4245 38.9382 12.4411 38.941 12.4545 38.9451C12.8529 39.0777 14.4171 39.1243 15.6356 39.1243C17.3683 39.1243 19.5622 39.0361 20.1529 38.7863L20.4312 38.7897C21.1799 39.1124 24.2296 39.129 24.8431 39.129C26.027 39.129 27.5508 39.0818 27.9489 38.9492C27.9623 38.9451 27.9792 38.9423 27.9992 38.9423C28.2247 38.9423 28.6643 39.1943 29.1306 39.4611C29.8645 39.8807 30.6957 40.3567 31.4452 40.3567C32.0096 40.3567 32.4411 40.0809 32.7273 39.5371C33.2605 38.5271 33.3458 37.7094 32.9825 37.1068C32.7117 36.6569 32.232 36.3986 31.7398 36.251C31.874 36.272 31.9919 36.3051 32.0935 36.3501C32.1692 36.3842 32.2549 36.4008 32.3481 36.4008C32.8399 36.4008 33.5144 35.9346 34.2274 35.4411C34.8206 35.0315 35.4326 34.6081 35.7568 34.6081C36.471 34.6081 39.1709 33.9002 39.3539 30.4354C39.3786 29.9657 39.2131 29.5414 38.8635 29.1728C37.3823 27.613 32.9779 27.4441 31.153 27.4441C29.7977 27.4441 28.5063 27.5339 27.8621 27.6727C27.3637 27.78 27.0166 27.8503 26.7498 27.8503C26.1194 27.8503 25.9342 27.4557 25.1632 25.5923L24.9571 25.0958C23.9924 22.7799 24.8727 20.3268 25.2754 19.4177C25.5769 20.3408 26.328 22.6908 26.7205 24.3221L26.7201 24.3221Z" fill="#006944"/>
</svg>
