<svg width="39" height="41" viewBox="0 0 39 41" fill="none" xmlns="http://www.w3.org/2000/svg">
<path d="M15.3 27.7571C16.7911 28.0943 18.2367 28.6092 19.6055 29.2905C20.1792 29.5766 20.8116 29.7263 21.4528 29.727H27.794C28.5527 29.727 29.2803 30.0284 29.8172 30.5649C30.3536 31.1017 30.6551 31.8294 30.6551 32.5881C30.6503 32.6888 30.6401 32.7892 30.6248 32.8888L33.064 31.8524C33.5709 31.4108 33.9782 30.8666 34.2592 30.2557L37.0703 23.9956H37.0707C37.9647 22.0241 38.4253 19.8834 38.4209 17.7183C38.4162 16.3819 38.1041 15.0645 37.5086 13.8682C36.5623 11.976 34.8113 10.613 32.7447 10.1598C30.6781 9.70687 28.5173 10.2123 26.8663 11.5352L26.159 12.0994V10.9875C26.1484 7.50017 27.5341 4.15335 30.007 1.69396L28.8508 0.537842C26.0715 3.30226 24.5135 7.0637 24.5242 10.9836V12.0951L23.818 11.5309V11.5313C22.5744 10.5383 21.031 9.99635 19.4395 9.99346C18.1374 9.98944 16.8602 10.3504 15.7525 11.0349C14.645 11.7199 13.7516 12.7016 13.1739 13.8683C12.5783 15.0646 12.2666 16.3824 12.2622 17.7184C12.2575 19.8829 12.7181 22.0232 13.6118 23.9943L15.3 27.7571Z" fill="#006944"/>
<path d="M38.3214 32.9029C38.19 32.5599 37.9244 32.2851 37.5857 32.142C37.2594 32.003 36.8908 32.003 36.5646 32.142L29.7308 35.0433C29.1334 35.297 28.4929 35.4327 27.8441 35.4429C27.8269 35.4429 27.8112 35.4477 27.7952 35.4477H27.7445L17.9835 35.448V33.8146H27.7426C27.8513 33.8146 27.9561 33.7927 28.063 33.7829C28.6684 33.642 29.0728 33.0705 29.0042 32.4527C28.9352 31.8349 28.4148 31.3663 27.7933 31.3622H21.4521C20.5569 31.3615 19.6742 31.1531 18.8732 30.7532C16.4474 29.5442 13.7746 28.9132 11.0638 28.9099H8.9917V36.6375L15.7161 39.4307C18.6586 40.6306 21.9474 40.666 24.9151 39.5296L37.5432 34.7138C37.8826 34.5839 38.1556 34.3226 38.3005 33.9894C38.4534 33.6449 38.461 33.2534 38.3216 32.903L38.3214 32.9029Z" fill="#006944"/>
<path d="M0 28.0925H7.35714V37.9021H0V28.0925Z" fill="#006944"/>
<path d="M25.0967 5.96312C24.9029 4.54457 24.25 3.22898 23.2377 2.21663C22.2254 1.20429 20.9098 0.551069 19.4912 0.356934C19.6854 1.77548 20.3382 3.09108 21.3502 4.10342C22.3625 5.11577 23.6781 5.76899 25.0967 5.96312Z" fill="#006944"/>
</svg>
