<svg width="61" height="41" viewBox="0 0 61 41" fill="none" xmlns="http://www.w3.org/2000/svg">
<path d="M12.9135 9.50389C14.958 9.72648 16.4351 11.5646 16.2124 13.6091C15.9898 15.6536 14.1518 17.1307 12.1073 16.908C10.0628 16.6854 8.58568 14.8473 8.80834 12.8028C9.03093 10.7583 10.869 9.28124 12.9135 9.50389Z" fill="#006944"/>
<path d="M12.2851 31.7536H6.95601C5.672 31.7536 4.64459 30.8547 4.388 29.6348L2.52579 19.2335C2.39726 18.5272 1.75546 18.078 1.04917 18.2061C0.342882 18.3346 -0.106308 18.9764 0.0217715 19.6827L1.88352 30.0199C2.33318 32.5239 4.45153 34.3217 6.95556 34.3217H11.3859V39.0086C11.3859 39.7149 11.9636 40.2926 12.6699 40.2926C13.3761 40.2926 13.9539 39.7149 13.9539 39.0086V33.4228C13.9543 32.5239 13.184 31.7536 12.2851 31.7536Z" fill="#006944"/>
<path d="M16.5229 26.3604H13.12L14.0188 22.3153L16.3943 23.4708C16.651 23.5994 16.908 23.6634 17.1647 23.6634H17.2287L20.8241 23.4708C21.787 23.4068 22.4934 22.636 22.4934 21.673C22.4293 20.7101 21.6586 20.0038 20.6956 20.0038L17.5494 20.1323C17.5494 20.1323 13.954 18.2706 13.5043 18.1421C12.9906 18.0135 10.9363 17.5643 10.9363 17.5643C10.23 17.4358 9.45968 17.5643 8.88148 17.9495C8.23923 18.3347 7.85408 18.9769 7.66145 19.6832L6.18483 26.8741C5.99224 27.6445 6.24887 28.4793 6.69853 29.1216C7.21224 29.7638 7.98254 30.0845 8.75335 30.0845H14.7243C15.1095 30.0845 15.4306 30.4056 15.4306 30.7908L15.4315 38.3029C15.4315 39.3943 16.2663 40.2292 17.3578 40.2292C18.4492 40.2292 19.2841 39.3943 19.2841 38.3029L19.2836 29.1212C19.2836 27.5805 17.9996 26.3605 16.523 26.3605L16.5229 26.3604Z" fill="#006944"/>
<path d="M52.1353 12.7911C52.3579 14.8356 50.8809 16.6736 48.8364 16.8963C46.7919 17.1184 44.9543 15.6414 44.7317 13.5969C44.5091 11.5524 45.9861 9.71482 48.0306 9.49216C50.0751 9.26957 51.9131 10.7466 52.1353 12.7911Z" fill="#006944"/>
<path d="M59.8617 18.2062C59.1555 18.0777 58.5132 18.5273 58.3851 19.2336L56.5234 29.5708C56.3308 30.7908 55.2394 31.6896 53.9554 31.6896H48.6263C47.7274 31.6896 46.957 32.4599 46.957 33.3588V38.9446C46.957 39.6509 47.5348 40.2286 48.241 40.2286C48.9473 40.2286 49.525 39.6509 49.525 38.9446V34.2577H53.9554C56.4594 34.2577 58.6423 32.4599 59.0274 29.9559L60.9533 19.6827C61.0818 18.9764 60.5681 18.3346 59.8618 18.2061L59.8617 18.2062Z" fill="#006944"/>
<path d="M54.2756 29.1855C54.7893 28.5433 54.9819 27.7089 54.7893 26.9381L53.3127 19.7471C53.1842 19.0408 52.735 18.3986 52.0927 18.0135C51.4504 17.6283 50.7441 17.4997 50.0379 17.6283C50.0379 17.6283 47.983 18.0779 47.4698 18.206C47.0202 18.3346 43.4248 20.1963 43.4248 20.1963L40.2785 20.0678C39.3156 20.0037 38.5449 20.7741 38.4808 21.737C38.4167 22.6999 39.1871 23.4707 40.15 23.5348L43.7454 23.7274H43.8095C44.0661 23.7274 44.3232 23.6633 44.5798 23.5348L46.9553 22.3793L47.8542 26.4244H44.4513C42.9102 26.4244 41.6906 27.6444 41.6906 29.185L41.6911 38.3026C41.6911 39.3941 42.5259 40.2289 43.6174 40.2289C44.7089 40.2289 45.5437 39.3941 45.5437 38.3026V30.9187C45.5437 30.5335 45.8648 30.2124 46.25 30.2124H52.2209C52.9912 30.2124 53.762 29.8272 54.2757 29.1855L54.2756 29.1855Z" fill="#006944"/>
<path d="M39.2514 24.9478H21.659C20.9527 24.9478 20.375 25.5255 20.375 26.2318C20.375 26.938 20.9528 27.5158 21.659 27.5158H29.1711V39.0728C29.1711 39.7791 29.7489 40.3569 30.4551 40.3569C31.1614 40.3569 31.7391 39.7791 31.7391 39.0728V27.5158H39.2512C39.9575 27.5158 40.5352 26.938 40.5352 26.2318C40.5357 25.5255 39.9575 24.9478 39.2512 24.9478H39.2514Z" fill="#006944"/>
<path d="M30.4556 18.5914C35.5277 18.5914 39.5729 14.4823 39.5729 9.47419C39.5729 4.40214 35.4637 0.356934 30.4556 0.356934C25.4476 0.356934 21.3384 4.46612 21.3384 9.47419C21.3384 14.4823 25.3835 18.5914 30.4556 18.5914ZM25.9613 8.51133C25.9613 8.2547 26.1539 8.06167 26.411 8.06167H28.979V5.49366C28.979 5.23703 29.1716 5.04399 29.4287 5.04399H31.4189C31.6756 5.04399 31.8686 5.23658 31.8686 5.49366V8.06167H34.4366C34.6932 8.06167 34.8863 8.25425 34.8863 8.51133V10.5016C34.8863 10.7582 34.6937 10.9513 34.4366 10.9513H31.8686V13.5193C31.8686 13.7759 31.676 13.9689 31.4189 13.9689H29.4287C29.172 13.9689 28.979 13.7763 28.979 13.5193V10.9513H26.411C26.1544 10.9513 25.9613 10.7587 25.9613 10.5016V8.51133Z" fill="#006944"/>
</svg>
